<svg width="410" height="410" viewBox="0 0 410 410" fill="none" xmlns="http://www.w3.org/2000/svg">
<g clip-path="url(#clip0_7_1569)">
<path d="M332.564 99.6973C334.006 104.262 334.887 108.746 335.768 113.551C336.328 116.754 337.049 119.957 337.93 123.16C339.451 129.086 340.492 134.932 341.373 140.857L342.895 148.865C344.256 155.752 344.256 155.752 341.213 157.514C337.689 158.635 334.246 159.356 330.723 160.156L327.76 161.277C324.261 162.527 320.674 163.517 317.029 164.24C311.904 165.281 306.859 166.482 301.895 168.164L303.977 168.564C321.754 172.248 321.754 172.248 327.6 176.732C332.404 179.936 334.807 180.016 340.332 180.176C347.699 187.543 340.012 219.814 337.93 229.824L337.209 233.508C335.367 242.637 335.367 242.637 331.604 242.797C306.539 241.916 288.682 237.352 268.262 222.617L270.184 225.26C302.055 268.982 302.055 268.982 292.045 279.953C288.682 282.356 285.398 284.438 281.635 286.359C270.904 293.103 259.43 298.584 247.441 302.695L245.92 303.416C238.072 304.057 238.072 304.057 235.51 299.412V297.811L233.107 297.01C233.107 295.408 233.107 295.408 237.111 293.807L243.037 290.443C247.281 288.041 251.445 285.799 255.85 283.717C259.854 281.715 263.377 279.473 266.98 276.75C270.664 274.428 274.828 272.986 278.912 271.465C282.275 268.982 281.314 267.301 280.354 263.377L279.873 260.975C275.869 244.959 265.699 233.988 254.889 222.137L250.484 217.092C247.553 213.783 244.563 210.526 241.516 207.322C238.473 204.119 235.43 200.836 232.547 197.473C229.984 194.43 229.984 194.43 226.701 192.107L228.303 191.307L230.705 184.1L237.352 190.826C241.499 194.915 245.828 198.816 250.324 202.518L252.166 204.119L257.051 208.523C270.584 220.135 283.477 228.143 301.414 230.625L304.137 231.025C310.383 231.986 316.549 232.547 322.795 232.947L323.115 230.305C323.676 226.141 324.396 221.977 325.197 217.893L325.998 213.408C326.799 209.725 326.799 209.725 327.6 207.322L327.68 197.633V194.91C328.24 182.658 328.24 182.658 318.791 176.092L316.148 174.811C298.291 168.164 278.592 171.848 260.094 173.689C251.9 174.498 243.705 175.299 235.51 176.092L236.311 172.889V164.881C244.559 163.68 252.807 162.479 261.135 161.838C271.545 161.037 282.115 159.035 292.365 156.873L295.008 156.313C300.613 155.191 306.139 153.75 311.584 151.988C313.986 151.268 313.986 151.268 317.75 150.467C326.398 149.266 326.398 149.266 329.121 142.539C328.48 137.494 327.52 132.529 326.479 127.564L325.918 125.002C325.132 120.995 324.332 116.991 323.516 112.99C323.195 109.787 323.195 109.787 321.994 108.826C321.674 107.145 321.514 105.383 321.273 103.701L320.953 100.818C321.594 94.5723 330.002 95.5332 332.645 99.6172L332.564 99.6973Z" fill="#505153"/>
<path d="M197.793 186.582L198.594 188.184H200.195C201.717 192.988 200.195 194.43 196.752 197.793C193.549 200.996 191.947 203.078 190.586 207.402L188.184 208.203L186.582 211.406C185.364 212.722 184.109 214.004 182.818 215.25C180.416 217.572 178.174 219.895 175.932 222.457C173.209 225.58 170.326 228.463 167.363 231.426C159.756 239.033 154.23 244.559 152.148 255.449C151.348 258.252 150.547 261.055 149.586 263.857C148.064 270.504 147.904 273.387 154.391 276.43L157.674 278.031C161.117 279.633 164.641 281.074 168.084 282.436C170.887 283.637 173.449 284.918 176.092 286.279C180.656 288.602 185.141 290.443 189.945 292.205C192.187 293.086 192.188 293.086 196.191 295.488C201.396 296.77 201.396 296.77 205.801 294.687C207.64 288.708 208.717 282.519 209.004 276.27L209.805 273.867C210.1 270.109 210.313 266.344 210.445 262.576C210.445 261.055 210.605 259.613 210.686 258.092L210.846 253.607L211.406 242.637H213.008V192.187H221.016V192.988H215.41L215.57 195.23C216.771 210.125 217.732 224.859 218.453 239.754C218.74 246.533 219.007 253.313 219.254 260.094C219.493 272.528 220.887 284.913 223.418 297.09L221.016 297.891V299.492L227.422 298.691V303.496H220.215V306.699C220.254 314.787 220.281 322.875 220.295 330.963V335.367C220.215 338.73 220.215 338.73 219.414 339.531C211.566 339.691 211.566 339.691 210.605 338.73L210.525 331.523V317.51L210.605 305.898H205.801V303.496L198.594 301.094L194.59 299.492L193.789 301.094C183.859 300.533 173.85 291.725 165.602 286.52C160.156 283.156 154.551 279.953 148.945 276.91C139.896 271.625 147.904 254.969 150.627 247.121C152.148 243.438 152.148 243.437 154.551 239.434L152.309 240.234C145.902 241.836 139.416 241.436 132.93 241.436C128.685 241.443 124.441 241.496 120.197 241.596H115.713C111.389 240.955 110.828 240.314 109.707 236.23C109.707 233.027 109.707 233.027 111.309 232.227L119.637 231.426C135.172 230.145 147.344 227.742 160.156 218.613L163.359 216.371C170.807 210.926 177.533 204.92 184.18 198.594L190.586 192.988L197.793 186.582Z" fill="#0D7F58"/>
<path d="M243.438 60.0586L248.963 59.8984L252.086 59.8184C254.648 60.0586 254.648 60.0586 256.09 62.7012L256.25 66.4648L256.65 70.4688C257.932 84.7227 259.053 101.619 252.246 114.512L250.324 119.637C248.723 123.641 247.121 127.484 245.039 131.328L243.438 134.531C248.032 129.511 252.57 124.439 257.051 119.316L264.258 111.309L266.1 109.307C275.549 99.457 291.244 85.8438 305.738 92.7305C307.5 94.4922 307.5 94.4922 306.699 96.8945L302.695 95.293C271.625 93.291 246.961 135.973 230.625 157.754V153.75H229.023V151.348H212.207V150.547L215.73 150.787C219.975 151.107 219.975 151.107 220.215 146.543C221.176 144.461 222.217 142.539 223.338 140.457L225.26 136.934L227.262 133.17C233.107 122.52 233.107 122.52 237.832 111.309L238.953 108.346L239.914 105.543L240.955 102.82C243.518 92.9707 243.678 83.041 243.518 72.9512V69.1875L243.438 60.0586Z" fill="#505153"/>
<path d="M241.836 201.797C245.68 203.398 247.682 204.76 250.805 207.402L253.527 209.805L262.496 217.812C264.258 219.414 264.258 219.414 266.18 220.775C279.393 232.307 297.17 258.893 294.688 277.07C290.924 281.234 286.68 283.797 281.715 286.279C279.633 287.4 277.711 288.602 275.789 289.803C266.768 294.986 257.277 299.303 247.441 302.695L245.84 303.496C237.992 304.137 237.992 304.137 235.43 299.492V297.891L233.027 297.09C233.027 295.488 233.027 295.488 237.031 293.887L242.957 290.523C247.201 288.121 251.365 285.879 255.77 283.797C259.773 281.795 263.297 279.553 266.9 276.83C270.584 274.508 274.748 273.066 278.832 271.545C282.195 269.062 281.234 267.301 280.273 263.457L279.152 258.813L278.512 256.41C278.111 254.809 277.711 253.127 277.471 251.445C275.389 241.195 268.422 233.828 261.695 226.061C259.415 223.337 257.199 220.56 255.049 217.732C251.445 213.088 247.521 208.684 243.438 204.359C241.836 202.598 241.836 202.598 241.836 201.797Z" fill="#505153"/>
<path d="M181.777 52.8516C180.977 56.8555 180.977 56.8555 178.574 56.8555C177.934 75.5937 177.934 92.0898 187.383 108.906L189.785 114.512C192.588 120.357 196.031 125.803 199.395 131.328L200.836 133.73C203.959 138.695 207.242 143.34 210.846 147.904C212.207 149.746 212.207 149.746 212.207 150.547L210.045 150.627L207.162 150.867L204.279 151.027C200.836 151.508 199.715 152.469 197.793 155.352L196.432 153.27C191.547 146.062 185.861 139.336 180.256 132.609L175.451 126.604C165.642 113.947 152.997 103.771 138.535 96.8945L135.332 95.293C131.568 94.8926 127.805 94.9727 124.121 94.9727H115.152C110.508 95.7734 109.627 100.498 108.266 104.422C106.744 108.586 105.143 112.51 103.221 116.434C100.818 121.559 99.2969 126.684 97.8555 132.129C96.8945 135.332 95.6934 138.535 94.4922 141.738C94.4922 145.021 101.699 145.102 104.422 145.662C107.305 146.543 107.305 146.543 108.105 148.945C102.052 149.489 95.9633 148.382 90.4883 145.742C90.4883 143.18 90.4883 143.18 91.2891 140.137L91.9297 137.494C93.5313 132.049 95.2129 126.924 97.5352 121.719L100.338 114.111C107.465 93.6914 110.748 89.2871 132.93 90.4883C141.405 92.3488 149.229 96.4405 155.592 102.34C157.754 104.342 157.754 104.342 161.197 105.223C175.932 110.348 190.186 128.045 199.395 140.137C197.873 136.373 196.191 133.25 194.109 129.727C193.309 128.605 192.668 127.324 191.947 126.123L189.785 122.52C186.003 116.42 182.786 109.987 180.176 103.301L179.135 101.059C175.329 91.3869 173.663 81.0058 174.25 70.6289L174.17 67.5059C174.17 61.5801 174.09 52.8516 181.777 52.8516Z" fill="#787715"/>
<path d="M109.707 148.945C115.232 149.426 120.117 150.547 125.402 152.148C131.648 153.91 137.734 155.191 144.141 155.832C146.543 156.152 146.543 156.152 150.547 157.754L155.912 158.715L159.115 159.195L162.398 159.676L169.125 160.797L172.408 161.277L185.781 163.68L192.988 164.961L192.187 175.371C183.539 174.971 174.891 174.57 166.242 173.77L163.68 173.609L153.109 172.729C129.086 170.246 129.086 170.246 105.863 175.291L102.82 176.572C99.8573 177.773 99.8573 177.773 96.8944 180.176H95.2929L96.8944 184.18C97.8554 189.465 98.0155 194.83 98.2558 200.195C98.4159 203.559 98.4159 203.559 99.2968 207.402L98.496 209.805H100.098L100.898 217.492L101.379 221.816C101.699 225.82 101.699 225.82 101.699 230.625L104.101 231.426L103.301 235.43C96.9745 233.828 98.1757 230.145 97.6952 224.219L96.8944 221.816L96.3339 212.447C96.3339 209.965 96.3339 209.965 95.2929 209.004C94.9946 206.258 94.7276 203.508 94.4921 200.756C94.0116 194.83 94.0116 194.83 92.8905 188.984C92.1698 177.934 94.8124 176.012 104.902 171.367L107.625 170.006C114.778 167.691 122.302 166.741 129.807 167.203H132.609C140.217 167.283 147.824 167.604 155.351 168.164L151.508 167.363C142.699 165.602 134.211 163.76 125.723 160.957L117.715 158.555C111.309 156.393 109.547 155.752 109.707 148.945Z" fill="#787715"/>
<path d="M197.793 186.582L198.594 188.184L200.195 188.984L198.594 190.586C195.791 193.389 193.229 196.432 190.586 199.395L186.262 204.039C182.818 207.803 179.535 211.646 176.412 215.65C174.496 217.918 172.52 220.135 170.486 222.297C168.084 224.939 165.682 227.582 163.52 230.465C154.951 241.516 146.063 241.516 132.77 241.516C128.552 241.462 124.334 241.462 120.117 241.516L115.633 241.596C111.389 240.955 110.828 240.314 109.707 236.23C109.707 233.027 109.707 233.027 111.309 232.227L119.637 231.426C135.172 230.145 147.344 227.742 160.156 218.613L163.359 216.371C170.807 210.926 177.533 204.92 184.18 198.594L190.586 192.988L197.793 186.582Z" fill="#505153"/>
<path d="M230.625 184.18L237.271 190.906C241.419 194.995 245.748 198.896 250.244 202.598L252.086 204.199L256.971 208.604C268.182 218.213 280.434 227.822 295.488 229.824L293.086 230.625L292.686 233.027C292.285 235.43 292.285 235.43 289.883 236.23C283.506 233.14 277.49 229.353 271.945 224.939C269.783 223.338 269.783 223.338 267.141 221.977C263.938 220.055 261.535 217.812 258.893 215.25C254.008 210.605 248.963 206.441 243.438 202.598L250.645 211.406C254.648 215.971 258.412 220.695 262.096 225.5L268.502 233.348C276.67 242.957 276.67 242.957 277.07 249.844C274.668 246.641 274.668 246.641 272.746 243.518C267.621 235.83 261.055 229.104 254.809 222.217L250.404 217.172C247.473 213.863 244.483 210.606 241.436 207.402C238.393 204.199 235.35 200.916 232.467 197.553C229.904 194.51 229.904 194.51 226.621 192.188L228.223 191.387L230.625 184.18Z" fill="#787715"/>
<path d="M130.127 167.203H132.93C138.535 167.203 144.141 167.604 149.746 168.164H155.031C159.355 168.164 159.355 168.164 160.156 168.965L164.641 169.205C170.246 169.606 175.611 170.326 181.137 171.287L183.539 171.688C189.465 172.648 189.465 172.648 192.187 175.371C183.539 174.971 174.891 174.57 166.242 173.77L163.68 173.609L153.109 172.729C129.086 170.246 129.086 170.246 105.863 175.291L102.82 176.572C99.8573 177.773 99.8573 177.773 96.8944 180.176H95.2929L96.8944 184.18C97.8554 189.465 98.0155 194.83 98.2558 200.195C98.4159 203.559 98.4159 203.559 99.2968 207.402L98.496 209.805H100.098L100.898 217.492L101.379 221.816C101.699 225.82 101.699 225.82 101.699 230.625L104.101 231.426L103.301 235.43C96.9745 233.828 98.1757 230.145 97.6952 224.219L96.8944 221.816L96.3339 212.447C96.3339 209.965 96.3339 209.965 95.2929 209.004C94.9946 206.258 94.7276 203.508 94.4921 200.756C94.0116 194.83 94.0116 194.83 92.8905 188.984C92.1698 177.934 94.8124 176.012 104.902 171.367L107.625 170.006C114.885 167.676 122.517 166.725 130.127 167.203Z" fill="#D7BB1B"/>
<path d="M200.996 189.785C200.115 194.189 199.314 195.07 196.191 198.113C193.51 200.64 191.571 203.852 190.586 207.402L188.184 208.203L186.582 211.406C185.364 212.722 184.108 214.004 182.818 215.25C180.416 217.572 178.174 219.894 175.932 222.457C173.209 225.58 170.326 228.463 167.363 231.426C159.756 239.033 154.23 244.559 152.148 255.449C151.348 258.252 150.547 261.055 149.586 263.857C147.984 270.744 147.984 273.467 154.711 276.59L157.914 278.191C160.246 279.194 162.595 280.155 164.961 281.074L163.359 284.277C159.596 282.756 156.312 281.074 152.789 279.072L149.346 277.15C139.816 271.545 147.664 255.529 150.627 247.121C152.148 243.437 152.148 243.437 154.551 239.434L152.949 238.633L156.953 237.031C161.277 233.107 164.641 228.783 168.164 224.219L173.529 218.293C175.372 216.203 177.161 214.067 178.894 211.887C182.232 207.821 185.704 203.869 189.305 200.035C199.394 189.225 199.394 189.225 200.996 189.785Z" fill="#D7BB1B"/>
<path d="M157.754 104.101L160.156 104.902C161.117 107.785 161.117 107.785 161.758 110.508L158.555 108.426L156.553 107.064L151.268 103.381L147.344 100.898L144.941 99.2968C137.895 95.2929 131.488 94.7323 123.48 94.7323H120.518C112.27 94.8925 110.908 97.1346 108.266 104.422C106.744 108.586 105.143 112.51 103.221 116.433C100.818 121.558 99.2969 126.683 97.8555 132.129C96.8945 135.332 95.6934 138.535 94.4922 141.738C94.4922 145.021 101.699 145.101 104.422 145.662C107.305 146.543 107.305 146.543 108.105 148.945C102.052 149.489 95.9633 148.382 90.4883 145.742C90.4883 143.18 90.4883 143.18 91.2891 140.137L91.9297 137.494C93.5313 132.049 95.2129 126.924 97.5352 121.719L100.338 114.111C110.748 84.3221 134.291 83.6815 157.754 104.101Z" fill="#D7BB1B"/>
<path d="M211.406 269.062V319.512H210.605V305.898H205.801V303.496L198.594 301.094L194.59 299.492L193.789 301.094C187.223 300.773 181.617 296.289 176.172 293.086L172.488 290.924L168.885 288.842L165.682 286.92C163.359 285.078 163.359 285.078 164.16 281.875C168.135 282.415 171.953 283.779 175.371 285.879C180.016 288.281 184.82 290.283 189.785 292.125C192.188 293.086 192.188 293.086 196.191 295.488C201.396 296.77 201.396 296.77 205.801 294.688C207.322 290.259 208.29 285.66 208.684 280.994C209.484 269.062 209.484 269.062 211.406 269.062Z" fill="#505153"/>
<path d="M181.777 52.8516C180.977 56.8555 180.977 56.8555 178.574 56.8555C177.934 75.5937 177.934 92.0898 187.383 108.906L189.785 114.512C192.588 120.357 196.031 125.803 199.395 131.328L200.836 133.73C203.959 138.695 207.242 143.34 210.846 147.904C212.207 149.746 212.207 149.746 212.207 150.547C206.762 150.547 206.602 150.387 203.398 146.543L201.156 144.141C199.395 141.738 199.395 141.738 198.994 139.416C198.434 136.053 196.592 133.65 194.75 130.848C189.785 123.091 185.447 114.951 181.777 106.504L179.695 102.18C175.622 92.2357 173.764 81.5239 174.25 70.7891V67.7461C173.93 52.8516 173.93 52.8516 181.777 52.8516Z" fill="#D7BB1B"/>
<path d="M307.5 94.4923L306.699 96.8946L302.695 95.2931C271.625 93.2911 246.961 135.973 230.625 157.754C229.184 151.748 230.545 149.666 234.469 145.102C238.152 140.938 238.152 140.938 241.035 136.133L243.117 134.531C245.44 132.449 247.121 130.688 248.963 128.285C289.963 77.0352 289.963 77.0352 307.5 94.4923Z" fill="#D7BB1B"/>
<path d="M331.523 180.176C325.998 180.176 323.516 178.734 318.711 176.172C302.295 168.164 283.396 171.447 265.859 173.369C260.709 173.918 255.558 174.452 250.404 174.971C245.6 175.371 241.035 175.451 236.23 175.371C237.832 172.969 237.832 172.969 239.434 172.969V171.367C272.506 168.885 272.506 168.885 287.881 168.324H290.844C304.457 167.844 321.994 169.045 331.523 180.176Z" fill="#D7BB1B"/>
<path d="M164.16 281.875C168.135 282.415 171.953 283.779 175.371 285.879C178.574 287.48 181.697 289.082 184.98 290.363C187.383 291.484 187.383 291.484 187.383 293.086L190.586 294.687C193.789 296.289 193.789 296.289 194.59 299.492C193.229 302.135 191.627 300.934 188.984 300.293C184.58 298.131 180.416 295.568 176.172 293.086L172.488 290.924L168.885 288.842L165.682 286.92C163.359 285.078 163.359 285.078 164.16 281.875Z" fill="#787715"/>
<path d="M151.348 245.039L154.551 245.84C153.029 251.926 151.428 257.932 149.586 263.938C147.984 270.824 147.984 273.467 154.711 276.59L157.914 278.191C160.246 279.194 162.595 280.155 164.961 281.074L163.359 284.277C159.596 282.756 156.313 281.074 152.789 279.072L149.346 277.15C142.379 272.986 144.941 267.381 146.783 260.334L147.824 256.33C148.865 252.486 150.066 248.723 151.348 245.039Z" fill="#D7BB1B"/>
</g>
<defs>
<clipPath id="clip0_7_1569">
<rect width="410" height="410" fill="white"/>
</clipPath>
</defs>
</svg>
