<svg width="210" height="210" viewBox="0 0 210 210" fill="none" xmlns="http://www.w3.org/2000/svg">
<g id="appHive">
<g id="beehive 2" clip-path="url(#clip0_38_488)">
<g id="Group">
<g id="Group_2">
<path id="Vector" d="M33.9088 117.773H168.486C170.882 117.773 173.179 116.821 174.873 115.127C176.568 113.433 177.519 111.136 177.519 108.74C177.519 106.344 176.568 104.046 174.873 102.352C173.179 100.658 170.882 99.7065 168.486 99.7065H33.9088C31.513 99.7065 29.2154 100.658 27.5213 102.352C25.8272 104.046 24.8755 106.344 24.8755 108.74C24.8755 111.136 25.8272 113.433 27.5213 115.127C29.2154 116.821 31.513 117.773 33.9088 117.773Z" fill="#2A9D8F"/>
<path id="Vector_2" d="M166.642 117.773H35.7529V187.642C35.7529 189.209 36.3751 190.711 37.4828 191.819C38.5904 192.926 40.0927 193.549 41.6591 193.549H160.744C162.31 193.549 163.813 192.926 164.92 191.819C166.028 190.711 166.65 189.209 166.65 187.642V117.773H166.642Z" fill="#E9C46A"/>
<path id="Vector_3" d="M154.846 137.499V129.571H47.5491V137.499L53.4553 143.405H148.94L154.846 137.499Z" fill="#F4A261"/>
<path id="Vector_4" d="M33.9088 23.9377H168.486C170.882 23.9377 173.179 22.9859 174.873 21.2919C176.568 19.5978 177.519 17.3002 177.519 14.9044C177.519 12.5086 176.568 10.2109 174.873 8.51688C173.179 6.82281 170.882 5.87109 168.486 5.87109H33.9088C32.7226 5.87109 31.5479 6.10475 30.4519 6.55871C29.356 7.01268 28.3601 7.67806 27.5213 8.51688C26.6825 9.3557 26.0171 10.3515 25.5632 11.4475C25.1092 12.5435 24.8755 13.7181 24.8755 14.9044C24.8755 17.3002 25.8272 19.5978 27.5213 21.2919C29.2154 22.9859 31.513 23.9377 33.9088 23.9377Z" fill="#2A9D8F"/>
<path id="Vector_5" d="M166.642 23.9377H35.7511V99.7067H166.642V23.9377Z" fill="#E9C46A"/>
<path id="Vector_6" d="M154.846 43.6629V35.7354H47.5491V43.6629C49.846 45.9679 51.1453 47.2591 53.4553 49.5691H148.94C151.248 47.2591 152.541 45.9679 154.846 43.6629Z" fill="#F4A261"/>
<g id="Group_3">
<path id="Vector_7" d="M139.911 210.129H154.659V193.542H131.062L139.911 210.129Z" fill="#2A9D8F"/>
<path id="Vector_8" d="M62.4837 210.129H47.7361V193.542H71.3333L62.4837 210.129Z" fill="#2A9D8F"/>
</g>
</g>
</g>
<g id="numberFrame">
<rect width="72" height="21" transform="matrix(-1 0 0 1 137 63)" fill="#E76F51"/>
<path id="Hive N" d="M83.0568 78V69.2727H84.1136V73.1591H88.767V69.2727H89.8239V78H88.767V74.0966H84.1136V78H83.0568ZM91.8033 78V71.4545H92.8089V78H91.8033ZM92.3146 70.3636C92.1186 70.3636 91.9496 70.2969 91.8075 70.1634C91.6683 70.0298 91.5987 69.8693 91.5987 69.6818C91.5987 69.4943 91.6683 69.3338 91.8075 69.2003C91.9496 69.0668 92.1186 69 92.3146 69C92.5107 69 92.6783 69.0668 92.8175 69.2003C92.9595 69.3338 93.0305 69.4943 93.0305 69.6818C93.0305 69.8693 92.9595 70.0298 92.8175 70.1634C92.6783 70.2969 92.5107 70.3636 92.3146 70.3636ZM100.003 71.4545L97.5827 78H96.56L94.1396 71.4545H95.2305L97.0373 76.6705H97.1055L98.9123 71.4545H100.003ZM103.841 78.1364C103.21 78.1364 102.666 77.9972 102.208 77.7188C101.754 77.4375 101.403 77.0455 101.156 76.5426C100.912 76.0369 100.789 75.4489 100.789 74.7784C100.789 74.108 100.912 73.517 101.156 73.0057C101.403 72.4915 101.747 72.0909 102.187 71.804C102.63 71.5142 103.147 71.3693 103.738 71.3693C104.079 71.3693 104.416 71.4261 104.748 71.5398C105.081 71.6534 105.383 71.8381 105.656 72.0938C105.929 72.3466 106.146 72.6818 106.308 73.0994C106.47 73.517 106.551 74.0312 106.551 74.642V75.0682H101.505V74.1989H105.528C105.528 73.8295 105.454 73.5 105.306 73.2102C105.162 72.9205 104.954 72.6918 104.684 72.5241C104.417 72.3565 104.102 72.2727 103.738 72.2727C103.338 72.2727 102.991 72.3722 102.699 72.571C102.409 72.767 102.186 73.0227 102.029 73.3381C101.873 73.6534 101.795 73.9915 101.795 74.3523V74.9318C101.795 75.4261 101.88 75.8452 102.051 76.1889C102.224 76.5298 102.464 76.7898 102.771 76.9688C103.078 77.1449 103.434 77.233 103.841 77.233C104.105 77.233 104.343 77.196 104.556 77.1222C104.772 77.0455 104.958 76.9318 105.115 76.7812C105.271 76.6278 105.392 76.4375 105.477 76.2102L106.449 76.483C106.346 76.8125 106.174 77.1023 105.933 77.3523C105.691 77.5994 105.393 77.7926 105.038 77.9318C104.683 78.0682 104.284 78.1364 103.841 78.1364ZM118.512 69.2727V78H117.49L112.734 71.1477H112.649V78H111.592V69.2727H112.615L117.387 76.142H117.473V69.2727H118.512Z" fill="#264653"/>
<rect width="72" height="21" transform="matrix(-1 0 0 1 137 63)" stroke="#2A9D8F" stroke-linecap="round" stroke-linejoin="round" stroke-dasharray="1 1"/>
</g>
</g>
</g>
<defs>
<clipPath id="clip0_38_488">
<rect width="210" height="210" fill="white" transform="matrix(-1 0 0 1 210 0)"/>
</clipPath>
</defs>
</svg>
